<svg id="Capa_1" data-name="Capa 1" xmlns="http://www.w3.org/2000/svg" viewBox="0 0 359.36 358.83"><defs><style>.cls-1{fill:#403b3c;}.cls-2{fill:#797575;}.cls-3{fill:#f8f7f7;}.cls-4{fill:#ec3338;}.cls-5{fill:#3e3738;}.cls-6{fill:#454243;}.cls-7{fill:#eb3237;}.cls-8{fill:#ea3237;}.cls-9{fill:#393435;}.cls-10{fill:#1a18bc;}.cls-11{fill:#de999b;}.cls-12{fill:#18100f;}.cls-13{fill:#e4bf95;}.cls-14{fill:#f6ce05;}.cls-15{fill:#f5c50c;}</style></defs><title>logo-escuela</title><path class="cls-1" d="M194.3,0c2.64,2,5.92,1.46,8.85,1.88C248.4,8.3,286.11,28.6,316,63.11a175.17,175.17,0,0,1,37,69.82,172.18,172.18,0,0,1,6.07,54.61c-1.91,34.93-12.41,67.06-33,95.5-28.11,38.75-65.69,63.23-112.67,72.59-24.31,4.84-48.59,4.08-73-1.35-42.74-9.51-76.68-32-103.56-66.12A169.59,169.59,0,0,1,7.21,230.41c-8.15-27.66-9.2-55.64-4.1-84A170.12,170.12,0,0,1,33.47,75.21C57.69,42.07,89.41,19.15,128.91,7.54,141.72,3.77,154.8.84,168.32,1c.8,0,1.69.1,2-1h15c1,1.27,2,1.53,3,0ZM25.38,98.47c-.84,1.43-1.77,2.8-2.5,4.28C7.05,134.66,2,168.42,6.6,203.53A158.46,158.46,0,0,0,27,264c.89,1.77,1.67,3.61,2.69,5.3C88.24,366.38,222.59,382.9,302.9,302.84c11.71-11.67,22-24.49,29.33-39.44.85-1.42,1.78-2.8,2.53-4.28q25.41-50,17.32-105.56c-2.89-19.53-8.77-38.2-18.59-55.48-.95-1.93-1.76-3.95-2.86-5.79C261.37-24.27,96.21-23.14,28.14,92.64,27.05,94.48,26.29,96.52,25.38,98.47Z"/><path class="cls-2" d="M188.3,0c-1,1.53-2,1.27-3,0Z"/><path class="cls-3" d="M332.23,263.4c-7.35,15-17.62,27.77-29.33,39.44C222.59,382.9,88.24,366.38,29.73,269.29c-1-1.69-1.8-3.53-2.69-5.3,5.49-9.7,13.92-11.2,23.84-8.53.41.34.85.62,1.21,0,.07-.11-.31-.5-.49-.76a19.1,19.1,0,0,0-.72-1.85c-22.84-44.81-23.8-90.34-4.6-136.57.55-1.32,1.71-2.53.95-4.58C36,114.06,29.29,108.52,25.38,98.47c.91-1.95,1.68-4,2.76-5.83C96.21-23.14,261.37-24.27,330.63,92.3c1.1,1.84,1.91,3.86,2.86,5.79C330.83,110,322.42,113.2,311,112c22,48.54,20.67,95.92-4,143.16C317.5,253.12,326.47,253.72,332.23,263.4ZM170.28,332c.3-5.48-4-1.92-6-2.83s-1.73,1.66-1.87,3c-.18,1.81-.33,3.63-.35,5.45,0,1.3-1.05,3.32,1.45,3.39s1.69-2.08,1.75-3.34c.15-3.42.56-6.41,5.15-5.78a38.21,38.21,0,0,0,0,5.33,5.78,5.78,0,0,0,8.7,4.21c.83-.48,2-1.17,1.64-2.13-.46-1.27-1.66-1.41-2.84-.55s-2.39,1.29-3.43-.15a3.54,3.54,0,0,1-.28-1.35,28.15,28.15,0,0,0,3.36-.47c1.37-.35,3.67,1.3,4-1.42a5.23,5.23,0,0,0-2.85-5.38C175.24,328.15,172.9,330.67,170.28,332Zm99-26.42a11.62,11.62,0,0,0-3.07-1.55c-3.23-.55-5.68.88-6.52,4-.94,3.49.9,6.17,3.82,7.88,2.75,1.61,5.14.34,7.06-1.77,1.07-1.18,1.43-3.08.14-3.95s-1.72.87-2.14,1.89c-.51,1.23-1.38,1.92-2.71,1.45-.55-.19-1.31-.79-1.35-1.26-.14-1.48,1.55-1.34,2.29-2.14,1.27-1.37,4.74-1.44,2.4-4.66l5.73.82c-.84,1-2.25,1-2.45,2.36,3.12,2,5.65.71,8-1.52,1.25-1.21,2.11-2.7,1.54-4.48-1.23-3.85-4.8-1.9-7.51-2.9.58-1.12,3.22-.85,2.35-2.42s-2.68-.79-4-.14C269.24,299,268.71,302.07,269.33,305.63Zm-180,4.31c-2.17,6.81,4.68,6.48,7.45,9.71,1.38-2.15,2.49-4.18,3.88-6,2.62-3.44,1.4-5.76-1.93-7.61-1.66-.92-4.12-1.85-4.85,0-1,2.53,1.9,1.59,3.16,2.09,1,.38,1.93,1,1.43,2.17-.39.89-1.44.69-2.17.23-2.27-1.44-4.66-1-7.06-.52,1.11-3.76.87-7.2-2.13-10.15-.92-.9-1.93-2.42-.26-3.33,1.3-.72,2.52.54,3.24,1.65.4.62.24,1.59.43,2.38.26,1.08,1.24,2,2.1,1.85,1.31-.17,1.64-1.56,1.47-2.73-.49-3.36-2.87-5.13-5.78-6.25a4.08,4.08,0,0,0-4.89,1.49c-2,2.45-.83,4.66.69,6.8l1.45,2c.69,1,1.41,2.06.27,3.07s-2.51.44-3.6-.43A3.5,3.5,0,0,1,81,302.83a2,2,0,0,0-2-2.3c-1.29.09-1.49,1.57-1.58,2.73a6,6,0,0,0,1.53,4.09C81.71,311.08,85.4,311,89.34,309.94Zm80.91,11.22a58.8,58.8,0,0,0,18.12,0,61.8,61.8,0,0,0,15.37-1.53c56.21-11.51,95-44,111.73-98.9,16.6-54.49,3.14-103.21-37.28-143.46C253.86,53.05,223.83,40,189.32,38a68.12,68.12,0,0,0-20,0c-3.14.27-6.33.31-9.43.83-57.11,9.63-97,41.27-115.22,96.14C26.37,190.05,39.2,239.77,80.1,281.11,104.66,305.94,135.14,319.19,170.25,321.16ZM99,46c-2.93-1.42-5.72-2.72-8.46-4.11a2.57,2.57,0,0,0-3.17.48c-1,.93-.35,1.78.17,2.61q3.32,5.28,6.66,10.55c.57.9,1.16,1.62,2.36.81s1-1.58.36-2.53c-1.15-1.8-2.29-3.6-3.53-5.54,3.35-.7,5.5,1.57,8,2.65,1.49.64,2.83,1.07,4.11-.15,1.5-1.43-.12-2.4-.71-3.4-1.69-2.87-3.44-5.71-5.33-8.44-.71-1-1-3.46-3.07-2.18-2.48,1.51.13,2.74.57,4.07C97.52,42.45,99.48,43.5,99,46ZM240.7,315.52c1.47.85,3.68,1.14,3.81-.9s-2.39-2.43-4.24-2.43a8.78,8.78,0,0,0-8.4,7.2c-.55,4.23,2.47,9.07,6.39,10.22,3.49,1,9.34-1.52,10.69-4.81a5.5,5.5,0,0,0-2.29-6.52c-1.68-1.12-4.1.84-5.67,2.15-1.14.95-.2,2.15,1.27,2.18,1.1,0,2.72-1.85,3.07.52.28,1.92-1.61,2.75-3.14,3.38-2.22.91-3.92-.14-5.2-1.85-1.44-1.92-2.48-4.09-1.38-6.5C236.53,316.15,238.29,315.3,240.7,315.52ZM62.6,87.3c1.48-1.66,3.18-3,4.17-4.81s5.36-3.32,2.77-5.59c-2-1.73-3,2.56-4.81,3.66a1.37,1.37,0,0,0-.34.36c-.9,1.18-1.77,1.8-3.26.61-1.65-1.31-1.36-2.37-.07-3.63a21,21,0,0,0,2-2.25c.64-.84,2-1.62.72-2.88s-2,.1-2.73.86-1.29,1.53-2,2.21c-.87.83-1.48,2.45-3.17,1s-.56-2.26.33-3.28,1.94-2.27,2.94-3.38c.81-.89.94-1.75-.1-2.5-.86-.62-1.51-.15-2.08.55s-1.3,1.5-2,2.25c-5.06,5.81-5.06,5.81.82,10.9Zm-6.35,9c.35-1.28-.06-1.78-.66-2.11a1.23,1.23,0,0,0-1.7.5q-1.55,2.26-3,4.59c-.77,1.22-1.41,2.12-3.11,1s-1.51-2-.68-3.63,4.18-3.71,1.94-5.27c-2.59-1.8-2.66,2.33-4.12,3.55-.92.77-1.19,2.57-3,1.47s-.84-2.19-.15-3.32c.86-1.42,1.78-2.81,2.62-4.24a1.21,1.21,0,0,0-.41-1.72,1.19,1.19,0,0,0-1.76.14,82.66,82.66,0,0,0-5.59,8.82c-.76,1.52,1.4,2.07,2.42,2.59,3.9,2,7.12,6.92,11.35,5.87C53,103.86,54.52,98.88,56.26,96.27ZM78.86,53.71a10.52,10.52,0,0,0-1.17-.61c-2.92-1.15-5.2.07-7.17,2.1C68.8,57,67.61,59,69.12,61.45c1.62,2.64,4,2.64,6.56,1.56,1.07-.45,2.13-1,3.17-1.47s2.27-.76,3,.53c.61,1,0,1.93-.64,2.71a3.45,3.45,0,0,1-3.54,1.37c-1.61-.4-3.36-.52-3.33,1.51,0,1.8,2.1,2,3.52,2,2.49,0,4.37-1.46,5.93-3.29,1.81-2.11,2.37-4.4.58-6.81-1.64-2.22-3.85-2.43-6.25-1.47-1.23.49-2.4,1.15-3.63,1.66-.94.38-2.11.69-2.64-.41s.42-1.83,1.14-2.52a3.67,3.67,0,0,1,3.27-.71C77.65,56.26,78.34,55.41,78.86,53.71Zm42-18.09c-.26,2.64.64,4.8,3.51,5.54a5.56,5.56,0,0,0,6.5-2.41,4.5,4.5,0,0,0-1.24-6.54,2.87,2.87,0,0,1-1.5-3.16,3.61,3.61,0,0,0-3.25-4.23,5.51,5.51,0,0,0-6,2.61,3.57,3.57,0,0,0,1.16,5.2C121.41,33.49,121.49,34.28,120.91,35.63Zm10.58,292c-.17-3.58-.31-5.91-.37-8.24,0-1.41-.28-2.58-1.82-3.18s-2.47.1-3.39,1.23c-2.73,3.35-5.54,6.64-8.27,10-.55.67-1.77,1.46-.59,2.4.91.74,2,.68,3.16-.11,3.93-2.61,6.6-1.74,8.09,2.7a2.58,2.58,0,0,0,2.42,2.05c1.92,0,1.12-1.62,1.09-2.62C131.74,330.06,131.54,328.23,131.49,327.66Zm70.09,5.45a26.2,26.2,0,0,0,1.06,3.54c2.6,5.82,7.14,1.92,10.58,1.6,2.74-.26.77-3.29.59-5-.3-3-1-5.87-1.58-8.8C212,323.2,212,321.6,210,322c-1.69.3-1.48,1.52-1.09,2.68.81,2.39-.24,2.54-2.36,2.55C203.09,327.2,201.81,329.66,201.58,333.12Zm82.32-275c-4.34-5.06-9.46-4.4-11.66,1.36-2.1,5.51,3.19,6.49,5.66,8.87,1.87,1.81,2.76-1.35,3.85-2.44a73.64,73.64,0,0,0,5.83-6.74c.77-1,2.88-1.94.87-3.55s-2.38.8-3.42,1.55C284.63,57.44,284.27,57.78,283.9,58.1Zm-136,276.26c.06,4.27,2.34,5.94,9.08,6.23,3.24.14,2-2.82,2.47-4.42a76.74,76.74,0,0,0,1.72-8.76c.18-1.17,1.05-2.79-.92-3.31s-1.91,1.15-2.21,2.39-.13,2.38-2.42,1.58C150.95,326.42,147.87,329.17,147.94,334.36ZM239.43,36.25A10.44,10.44,0,0,0,242,35.19c1.87-1.41,2.86-3.45,2.08-5.69-1.43-4.09-5.63-4.28-8.91-5.5-2.41-.89-2.24,1.86-2.83,3.15-1.37,3-2.46,6.15-3.7,9.22-.53,1.31-1,2.57.79,3.24s2-.81,2.29-1.82c.78-3.08,2.47-3.53,5.1-2.14A10.57,10.57,0,0,0,239.43,36.25ZM251.58,40c-2,1.93-3.28-.21-4.82-.09s-2.88.44-3.71,2a3,3,0,0,0,.41,3.7c1.91,2.15,5,2.19,7.39,3.51,1.22.67,1.52-2.8,2.57-4.21a16.19,16.19,0,0,0,1.6-3.09A3.44,3.44,0,0,0,253.53,37c-1.81-1.14-3.65-2.48-6-1.34-.55.27-1.15.53-1,1.45C247,40,250,38.21,251.58,40ZM189.41,26.71c1.12-.39,3.33,1.43,3.91-1a4.94,4.94,0,0,0-2.47-5.55c-2.61-1.55-5.27-1.35-7.16,1.06-2.13,2.71-2.43,5.92-.26,8.75,1.83,2.37,4.5,2.63,7.2,1.42.84-.38,2.07-1,1.69-2.07-.47-1.34-1.71-1.39-2.85-.59s-2.48.92-3.46-.37c-.24-.31-.38-1.08-.19-1.28C186.78,26.06,188,26.81,189.41,26.71Zm78.34,33.83c1.37-1.92,2.74-3.78,4-5.69,2.5-3.68,1.61-6.38-2.61-8.15-1.47-.61-3.33-1.14-3.88.59s1.42,1.63,2.65,1.86,2.47.93,1.94,2.26c-.45,1.12-1.69.5-2.6,0-.44-.23-.93-.37-1.38-.59-2.31-1.13-4.34-.85-5.41,1.62a3.35,3.35,0,0,0,2.28,4.78C264.83,57.86,265.86,59.66,267.74,60.54Zm-52.7,269c.14,2.78.83,5.32,3.57,6.67,2.37,1.17,4.57.45,6.5-1.07.89-.69,2-1.83,1.18-2.9s-2.14-.44-2.89.56c-1,1.29-2.06,1.63-3.39.68-.31-.23-.65-.92-.52-1.18.6-1.22,2.06-.88,3-1.47,1.24-.78,4,.11,3.58-2.41a5.24,5.24,0,0,0-4.29-4.37A5.56,5.56,0,0,0,215,329.56ZM168,23.07h.13q0,3.23,0,6.45c0,1.29.3,2.33,1.92,2.17,1.38-.13,1.49-1.2,1.35-2.18-.49-3.57.38-5.76,4.59-5.14.9.13,2.17.17,2.27-1.23.13-1.82-1.3-1.52-2.42-1.54-.66,0-1.32,0-2,0-1.48.1-2.6-.13-2.59-2s1.45-1.83,2.75-1.88,2.32-.05,3.47-.11c.88,0,1.66-.33,1.75-1.34s-.65-1.25-1.54-1.46c-7.4-1.73-9.86.21-9.7,7.76C168,22.74,168,22.9,168,23.07Zm18.28,309.3a3.11,3.11,0,0,1,3.68,0c1,.6,2.17.42,2.53-.55.53-1.44-.91-2-1.9-2.24-3-.73-6.33-.85-7.51,2.68-1.1,3.3,1.72,4.13,4.27,4.69.32.07.65.1,1,.15,1,.16,2.29.39,1.84,1.66-.31.87-1.6,1.06-2.63.63a10.28,10.28,0,0,0-2.65-1.12c-1-.09-2.21.5-1.36,1.76,1.5,2.23,3.92,2.26,6.27,1.87s4.18-1.54,4.26-4.09-2-3.14-4-3.67C188.78,333.75,187,334.31,186.31,332.37ZM310.24,88.61c.08-3.9-3-7.23-6.25-7-3.72.27-6.32,2.22-6.59,6.19a6.25,6.25,0,0,0,6.25,6.43C307.53,94.09,309.68,91.88,310.24,88.61Zm-9-13c-.26-3.07-3.93-4-5.6-6.55-.87-1.33-2.56,1.31-3.86,2.16a14.65,14.65,0,0,0-3,2.59c-.83.95-3.22,1.33-1.71,3.35s2.52,0,3.61-.74c.82-.56,1.52-1.29,2.31-1.89,1.36-1,2.82-2.16,4.31-.33S297,76.92,296,77.89c-1.18,1.16-2.55,2.14-3.76,3.27-.46.42-1,1.05-.33,1.7a3.14,3.14,0,0,0,1.53,1.07C294.9,84.1,301.16,77.69,301.2,75.64ZM146.41,329.84c.11-6.64-5.41-3.76-8-5.55-1.27-.87-2.14-.13-2.47,1.3-.63,2.76-1.27,5.51-1.95,8.25-.3,1.2.06,1.95,1.3,2.15s1.73-.61,2-1.68c.33-1.46.66-2.92,1.06-4.36s1.23-3,3-2.62c2,.39,1.85,2,1.43,3.58s-.77,3.24-1.16,4.85c-.3,1.25.3,1.87,1.45,2.1s1.55-.41,1.77-1.28C145.43,334.16,146,331.73,146.41,329.84ZM221.49,25.93c-2.68-3-4.44.48-6.07-.08s-1.73-4.18-5.23-2.34c4.38,4.44.89,7.41-2.32,10.22,2.86,2.58,4.08-.39,6.06-1.1,1.37,1.53,1.52,5.07,5.39,3.63C216.92,32.19,215.72,28.36,221.49,25.93ZM106.42,324.85c3-.37,7.84-6.58,7.08-8.9a3.88,3.88,0,0,0-1.24-1.49c-5.52-4.74-7.14-4.44-10.35,1.9-.45.89-.94,1.76-1.38,2.65-.53,1.06-1.13,2.2.45,2.89s2-.55,2.52-1.59c.77-1.47,1.51-3,2.42-4.34a2.34,2.34,0,0,1,3.47-.75c1.28.83.77,1.88.16,3C108.43,320.35,107.49,322.56,106.42,324.85Zm90-298.24c-.2,1.89-.26,2.38-.3,2.88-.08,1.23-.92,2.89,1.07,3.25,2.44.44,2-1.65,2.14-3,.49-3.61.9-7.24,1.36-10.86.15-1.14.59-2.46-1.1-2.76-2-.36-2,1.15-2.18,2.5C197,21.75,196.58,24.87,196.37,26.61Zm63.19,294.24c1.56-.53,2.47-1.28,1.51-2.91q-3.38-5.75-6.78-11.49c-.45-.76-1-1.24-2-.73s-1.45,1.34-.83,2.41q3.48,6,7,11.91C258.71,320.41,259.22,320.6,259.56,320.85Zm-149-284.48c-.29-2.57-1.3-4.64-4.11-4.78-2.19-.11-3.94,1.09-4.07,3.44-.14,2.56,1.06,4.66,3.78,5C108.56,40.28,110.13,38.88,110.52,36.37Zm145.79,15.9c.33-.24.83-.44,1.05-.81,2.36-4,4.67-8,7-12,.54-.94,0-1.57-.72-2-1.14-.73-1.81-.07-2.36.88C259.12,42,257,45.75,254.8,49.46,253.81,51.15,254.59,51.86,256.31,52.27ZM207.21,24.2c.06-.89.57-2.15-1.16-2.54s-1.86.87-2.09,2c-.49,2.44-.95,4.88-1.45,7.32-.26,1.28-.18,2.37,1.4,2.59,1.37.19,1.61-.86,1.82-1.85C206.22,29.31,206.68,26.86,207.21,24.2ZM290,63.53c-1.14.13-8.48,7.52-8.32,8.09a3.86,3.86,0,0,0,1,1.59,1.11,1.11,0,0,0,1.72-.11l6.48-6.83a1.34,1.34,0,0,0,.18-1.79A4.69,4.69,0,0,0,290,63.53Zm-34.32,258c-1.34-2.63-2.81-5.59-4.35-8.52-.52-1-1.31-.71-2.08-.25a1.38,1.38,0,0,0-.62,2.05c1.34,2.66,2.65,5.33,4,8,.39.75.95,1.43,1.95.92C255.28,323.3,256.07,322.92,255.66,321.5Zm-108.75-292c-.27-1-.52-2.2-1.83-1.83-1.62.45-3.91-.18-4.62,1.92a1.47,1.47,0,0,0,1.94,1.92C143.92,31,146.13,31.7,146.91,29.53Zm9.81-12.72c-2.16.79-2.25,2.41-2.11,4.1.08,1,.11,2.14,1.37,2.33a2.35,2.35,0,0,0,1.8-.57c.63-.66.43-2-.14-2.21C155.6,19.67,157.68,17.85,156.72,16.81ZM162.2,16c-2.35,1-2.29,2.7-2.13,4.36.09.94-.07,2.11,1.26,2.34a2,2,0,0,0,1.38-.33,1.66,1.66,0,0,0,.18-2.6C161.27,18.66,162.68,17.34,162.2,16Z"/><path class="cls-4" d="M25.38,98.47c3.91,10.05,10.62,15.59,21.85,13.24.77,2-.4,3.26-.95,4.58-19.2,46.23-18.23,91.76,4.6,136.57a19.1,19.1,0,0,1,.72,1.85l-.73.74C41,252.78,32.53,254.28,27,264A158.46,158.46,0,0,1,6.6,203.53C2,168.42,7.05,134.66,22.88,102.75,23.61,101.27,24.54,99.89,25.38,98.47Z"/><path class="cls-4" d="M332.23,263.4c-5.75-9.68-14.72-10.29-25.17-8.21,24.66-47.25,26-94.62,4-143.16,11.38,1.17,19.79-2,22.44-13.94,9.82,17.28,15.7,35.94,18.59,55.48q8.2,55.45-17.32,105.56C334,260.6,333.08,262,332.23,263.4Z"/><path class="cls-5" d="M189.32,38c34.51,2.07,64.54,15.09,88.88,39.33,40.42,40.25,53.88,89,37.28,143.46-16.72,54.88-55.52,87.39-111.73,98.9a61.8,61.8,0,0,1-15.37,1.53,29.83,29.83,0,0,0-18.12,0c-35.11-2-65.59-15.21-90.15-40C39.2,239.77,26.37,190.05,44.64,135c18.2-54.87,58.12-86.52,115.22-96.14,3.1-.52,6.28-.56,9.43-.83A40.93,40.93,0,0,0,189.32,38ZM126.17,260l.9-1.81c1.29,1.56,3.1,1.08,4.65.93,3.85-.37,6.1.78,8.2,4.48,5.71,10.06,12.16,19.7,18.32,29.5l.42,1.37c.12-.11.37-.27.35-.31-.18-.41-.4-.79-.62-1.18-.1-10.15-.07-20.31-.36-30.45-.11-3.81,2.21-3.42,4.55-3.33,2.14.08,4.76-.9,4.72,3.1-.15,14.49,0,29-.07,43.47,0,1.1.33,2.32-1,3.05-2.57,1.38-8.29-.32-9.88-3-6.14-10.29-14-19.5-19.41-30.25-.36-.71-.83-1.6-1.87-1.19s-.82,1.43-.66,2.15c2.17,9.69.47,19.56,1.29,29.33.29,3.46,1.41,4.35,4.22,5.14,18,5.09,36.22,7.17,54.81,4.89,8.68-1.07,17.44-2.09,25.56-5.74a1.91,1.91,0,0,1,2.12-2.09c1.34,1.91,2.94.84,4.4.3,18.92-7.07,35.8-17.32,49.78-32.06,1.21-1.14,2.52-2.19,3.61-3.43,37.25-42.56,46.31-90.57,27.08-143.65a114.87,114.87,0,0,0-30-45.45l-1.92-1.89c-1.48-2.49-3.77-4.21-5.93-6-34.19-28.55-73.33-38.78-117-30.75C93.23,56,46.12,108.89,42.47,168.89c-2.9,47.64,14.26,87,51,117.54a117.75,117.75,0,0,0,32.93,19.46c1-15.11,1.46-29.68-.19-44.25Z"/><path class="cls-6" d="M99,46c.48-2.48-1.49-3.53-2-5.18-.44-1.33-3.05-2.57-.57-4.07,2.12-1.28,2.36,1.15,3.07,2.18,1.89,2.73,3.64,5.57,5.33,8.44.59,1,2.21,2,.71,3.4-1.28,1.22-2.62.79-4.11.15-2.51-1.07-4.65-3.34-8-2.65,1.23,1.94,2.38,3.74,3.53,5.54.61,1,.74,1.79-.36,2.53s-1.79.08-2.36-.81Q90.87,50.25,87.54,45c-.52-.83-1.2-1.69-.17-2.61a2.57,2.57,0,0,1,3.17-.48C93.29,43.26,96.07,44.56,99,46Z"/><path class="cls-1" d="M240.7,315.52c-2.4-.22-4.17.63-5.09,2.63-1.1,2.4-.07,4.58,1.38,6.5,1.28,1.71,3,2.76,5.2,1.85,1.54-.63,3.42-1.45,3.14-3.38-.35-2.37-2-.5-3.07-.52-1.46,0-2.41-1.24-1.27-2.18,1.58-1.3,4-3.27,5.67-2.15a5.5,5.5,0,0,1,2.29,6.52c-1.35,3.3-7.2,5.83-10.69,4.81-3.92-1.14-6.94-6-6.39-10.22a8.78,8.78,0,0,1,8.4-7.2c1.85,0,4.37.35,4.24,2.43S242.17,316.37,240.7,315.52Z"/><path class="cls-6" d="M89.34,309.94c-3.94,1-7.63,1.14-10.41-2.59a6,6,0,0,1-1.53-4.09c.09-1.16.29-2.65,1.58-2.73a2,2,0,0,1,2,2.3,3.5,3.5,0,0,0,1.23,3.56c1.09.86,2.37,1.51,3.6.43s.42-2.09-.27-3.07l-1.45-2c-1.53-2.14-2.65-4.35-.69-6.8a4.08,4.08,0,0,1,4.89-1.49c2.91,1.12,5.28,2.9,5.78,6.25.17,1.18-.15,2.56-1.47,2.73-.86.11-1.83-.77-2.1-1.85-.19-.79,0-1.76-.43-2.38-.72-1.11-1.93-2.37-3.24-1.65-1.66.92-.66,2.43.26,3.33,3,3,3.24,6.39,2.13,10.15Z"/><path class="cls-6" d="M62.6,87.3,55.8,81.45c-5.88-5.09-5.88-5.09-.82-10.9.65-.75,1.32-1.49,2-2.25s1.22-1.17,2.08-.55c1,.76.91,1.61.1,2.5-1,1.1-2,2.25-2.94,3.38s-1.92,2-.33,3.28,2.3-.21,3.17-1c.72-.69,1.3-1.5,2-2.21s1.39-2.18,2.73-.86-.07,2-.72,2.88a21,21,0,0,1-2,2.25c-1.29,1.26-1.58,2.32.07,3.63,1.49,1.19,2.36.57,3.26-.61a1.37,1.37,0,0,1,.34-.36c1.83-1.1,2.83-5.4,4.81-3.66,2.59,2.27-1.71,3.69-2.77,5.59S64.09,85.64,62.6,87.3Z"/><path class="cls-6" d="M56.26,96.27c-1.74,2.61-3.28,7.59-5.9,8.24-4.24,1.05-7.46-3.89-11.35-5.87-1-.52-3.18-1.07-2.42-2.59a82.66,82.66,0,0,1,5.59-8.82,1.19,1.19,0,0,1,1.76-.14,1.21,1.21,0,0,1,.41,1.72c-.84,1.43-1.76,2.82-2.62,4.24-.68,1.13-1.63,2.25.15,3.32s2.12-.69,3-1.47c1.45-1.23,1.52-5.35,4.12-3.55,2.25,1.56-1.06,3.56-1.94,5.27s-1,2.52.68,3.63,2.34.2,3.11-1q1.46-2.32,3-4.59a1.23,1.23,0,0,1,1.7-.5C56.2,94.49,56.61,95,56.26,96.27Z"/><path class="cls-6" d="M78.86,53.71c-.52,1.7-1.22,2.55-2.56,2.39a3.67,3.67,0,0,0-3.27.71c-.72.69-1.64,1.5-1.14,2.52s1.7.79,2.64.41c1.23-.5,2.4-1.17,3.63-1.66,2.4-1,4.61-.75,6.25,1.47,1.79,2.41,1.23,4.7-.58,6.81-1.56,1.82-3.44,3.28-5.93,3.29-1.42,0-3.49-.19-3.52-2,0-2,1.71-1.91,3.33-1.51a3.45,3.45,0,0,0,3.54-1.37c.66-.78,1.24-1.67.64-2.71-.76-1.3-1.87-1.11-3-.53s-2.1,1-3.17,1.47c-2.56,1.08-4.94,1.08-6.56-1.56C67.61,59,68.8,57,70.52,55.2c2-2,4.25-3.25,7.17-2.1A10.52,10.52,0,0,1,78.86,53.71Z"/><path class="cls-1" d="M120.91,35.63c.58-1.34.5-2.14-.78-3a3.57,3.57,0,0,1-1.16-5.2,5.51,5.51,0,0,1,6-2.61A3.61,3.61,0,0,1,128.19,29a2.87,2.87,0,0,0,1.5,3.16,4.5,4.5,0,0,1,1.24,6.54,5.56,5.56,0,0,1-6.5,2.41C121.56,40.42,120.65,38.27,120.91,35.63Zm7.57.51a2.45,2.45,0,0,0-2.24-2.47,1.92,1.92,0,0,0-2.32,1.92c-.07,1.65.69,2.93,2.47,3C127.72,38.67,128.38,37.71,128.48,36.13Z"/><path class="cls-6" d="M131.49,327.66c0,.57.25,2.39.31,4.22,0,1,.83,2.63-1.09,2.62a2.58,2.58,0,0,1-2.42-2.05c-1.48-4.44-4.15-5.31-8.09-2.7-1.2.8-2.24.85-3.16.11-1.17-.95,0-1.73.59-2.4,2.73-3.35,5.54-6.64,8.27-10,.92-1.12,1.82-1.84,3.39-1.23s1.78,1.77,1.82,3.18C131.18,321.76,131.32,324.08,131.49,327.66Zm-3.92-6.25c-1.37,1.12-3.44,1.79-2.65,4a2.41,2.41,0,0,0,2.24.56C129.13,324.9,127.61,323,127.58,321.41Z"/><path class="cls-6" d="M201.58,333.12c.23-3.45,1.51-5.91,5-5.93,2.12,0,3.18-.16,2.36-2.55-.39-1.16-.6-2.38,1.09-2.68,2-.36,2,1.24,2.22,2.5.56,2.93,1.27,5.84,1.58,8.8.18,1.71,2.15,4.74-.59,5-3.43.33-8,4.22-10.58-1.6A26.2,26.2,0,0,1,201.58,333.12Zm8.87.61c-.11-1.92-.55-3.86-2.76-4.08-1.75-.18-2.63,1.18-2.52,2.94.13,2,.35,4.24,3,4.33C210,337,210.43,335.34,210.45,333.73Z"/><path class="cls-6" d="M283.9,58.1c.38-.32.73-.66,1.13-.94,1-.75,1.47-3.11,3.42-1.55s-.09,2.57-.87,3.55a73.64,73.64,0,0,1-5.83,6.74c-1.09,1.08-2,4.24-3.85,2.44-2.46-2.38-7.76-3.37-5.66-8.87C274.44,53.7,279.56,53,283.9,58.1Zm-2.44,2.34c.06-1.67-.61-2.86-2.17-2.77-2.44.14-3.75,1.82-4.11,4.12a1.91,1.91,0,0,0,1.9,2.35C279.65,64.23,280.74,62.43,281.46,60.44Z"/><path class="cls-6" d="M147.94,334.36c-.07-5.19,3-7.93,7.73-6.29,2.28.8,2.12-.36,2.42-1.58s.17-2.94,2.21-2.39,1.1,2.15.92,3.31a76.74,76.74,0,0,1-1.72,8.76c-.45,1.6.77,4.56-2.47,4.42C150.28,340.3,148,338.62,147.94,334.36Zm8.71-1.54c-.21-1.18-.48-2.9-2.46-2.68-2.54.28-2.85,2.45-2.89,4.5,0,1.72.93,3.07,2.68,2.78C156.16,337,156.51,335.07,156.65,332.82Z"/><path class="cls-1" d="M239.43,36.25a10.57,10.57,0,0,1-2.57-.58c-2.63-1.39-4.32-.95-5.1,2.14-.26,1-.59,2.45-2.29,1.82s-1.32-1.94-.79-3.24c1.24-3.07,2.33-6.21,3.7-9.22.59-1.29.42-4,2.83-3.15,3.28,1.21,7.48,1.41,8.91,5.5.78,2.23-.2,4.28-2.08,5.69A10.44,10.44,0,0,1,239.43,36.25Zm1.24-5.72A3.8,3.8,0,0,0,237,27.8c-1.94-.14-2.35,1.91-2.24,3.14.16,1.72,2.1,1.77,3.48,2C239.85,33.13,240.51,32,240.67,30.53Z"/><path class="cls-1" d="M269.33,305.63c-.61-3.56-.09-6.67,3.54-8.41,1.34-.64,3.12-1.46,4,.14s-1.78,1.3-2.35,2.42c2.71,1,6.28-1,7.51,2.9.57,1.78-.29,3.27-1.54,4.48-2.32,2.24-4.85,3.54-8,1.52.2-1.35,1.61-1.39,2.45-2.36l-5.73-.82Z"/><path class="cls-6" d="M251.58,40c-1.56-1.75-4.56.07-5-2.83-.15-.92.45-1.18,1-1.45,2.33-1.14,4.17.2,6,1.34A3.44,3.44,0,0,1,255,41.72a16.19,16.19,0,0,1-1.6,3.09c-1.05,1.41-1.35,4.88-2.57,4.21-2.42-1.32-5.48-1.36-7.39-3.51a3,3,0,0,1-.41-3.7c.83-1.52,2.1-1.83,3.71-2S249.62,41.88,251.58,40Z"/><path class="cls-6" d="M89.26,310c2.4-.48,4.78-.92,7.06.52.73.46,1.78.66,2.17-.23.5-1.14-.48-1.79-1.43-2.17-1.27-.51-4.16.44-3.16-2.09.73-1.86,3.19-.93,4.85,0,3.33,1.85,4.55,4.17,1.93,7.61-1.39,1.82-2.5,3.85-3.88,6-2.78-3.23-9.63-2.9-7.45-9.71Z"/><path class="cls-6" d="M189.41,26.71c-1.41.09-2.63-.65-3.59.34-.19.2-.05,1,.19,1.28,1,1.3,2.18,1.27,3.46.37s2.38-.75,2.85.59c.39,1.09-.84,1.69-1.69,2.07-2.7,1.21-5.37,1-7.2-1.42-2.17-2.82-1.88-6,.26-8.75,1.89-2.41,4.54-2.61,7.16-1.06a4.94,4.94,0,0,1,2.47,5.55C192.73,28.14,190.52,26.33,189.41,26.71Z"/><path class="cls-6" d="M170.28,332c2.62-1.37,5-3.9,8.37-2a5.23,5.23,0,0,1,2.85,5.38c-.3,2.73-2.59,1.07-4,1.42a28.15,28.15,0,0,1-3.36.47,3.54,3.54,0,0,0,.28,1.35c1,1.44,2.26,1,3.43.15s2.38-.72,2.84.55c.35,1-.8,1.65-1.64,2.13a5.78,5.78,0,0,1-8.7-4.21,38.21,38.21,0,0,1,0-5.33Z"/><path class="cls-6" d="M267.74,60.54c-1.89-.88-2.91-2.68-5-3.28a3.35,3.35,0,0,1-2.28-4.78c1.07-2.47,3.1-2.74,5.41-1.62.45.22.94.35,1.38.59.9.48,2.15,1.1,2.6,0,.54-1.33-.73-2-1.94-2.26s-3.23-.05-2.65-1.86,2.41-1.21,3.88-.59c4.22,1.76,5.11,4.47,2.61,8.15C270.49,56.76,269.11,58.62,267.74,60.54Z"/><path class="cls-6" d="M215,329.56a5.56,5.56,0,0,1,6.74-5.48,5.24,5.24,0,0,1,4.29,4.37c.38,2.52-2.34,1.63-3.58,2.41-.93.59-2.39.25-3,1.47-.13.26.21,1,.52,1.18,1.32.95,2.42.61,3.39-.68.75-1,2-1.72,2.89-.56s-.29,2.21-1.18,2.9c-1.94,1.51-4.13,2.24-6.5,1.07C215.88,334.88,215.18,332.35,215,329.56Z"/><path class="cls-6" d="M269.33,305.63l-.08-.13c2.34,3.22-1.13,3.29-2.4,4.66-.74.8-2.43.66-2.29,2.14,0,.47.8,1.07,1.35,1.26,1.33.47,2.2-.22,2.71-1.45.42-1,.76-2.82,2.14-1.89s.94,2.76-.14,3.95c-1.91,2.11-4.31,3.38-7.06,1.77-2.92-1.71-4.76-4.38-3.82-7.88.84-3.1,3.29-4.53,6.52-4A11.62,11.62,0,0,1,269.33,305.63Z"/><path class="cls-1" d="M168,23.07c0-.17,0-.33,0-.5-.16-7.54,2.3-9.49,9.7-7.76.89.21,1.63.41,1.54,1.46s-.87,1.3-1.75,1.34c-1.16.06-2.31.06-3.47.11s-2.73-.17-2.75,1.88,1.1,2.14,2.59,2c.66,0,1.32-.06,2,0,1.12,0,2.55-.28,2.42,1.54-.1,1.4-1.37,1.36-2.27,1.23-4.22-.62-5.09,1.57-4.59,5.14.14,1,0,2-1.35,2.18-1.62.16-1.92-.88-1.92-2.17q0-3.23,0-6.45Z"/><path class="cls-6" d="M186.31,332.37c.7,1.94,2.47,1.38,3.8,1.73,2,.53,4,1.16,4,3.67s-2,3.72-4.26,4.09-4.77.36-6.27-1.87c-.85-1.26.36-1.86,1.36-1.76a10.28,10.28,0,0,1,2.65,1.12c1,.43,2.32.25,2.63-.63.45-1.27-.85-1.5-1.84-1.66-.33-.05-.66-.08-1-.15-2.55-.56-5.37-1.4-4.27-4.69,1.18-3.53,4.48-3.41,7.51-2.68,1,.24,2.44.8,1.9,2.24-.36,1-1.48,1.15-2.53.55A3.11,3.11,0,0,0,186.31,332.37Z"/><path class="cls-6" d="M310.24,88.61c-.55,3.27-2.71,5.48-6.59,5.62a6.25,6.25,0,0,1-6.25-6.43c.27-4,2.87-5.91,6.59-6.19C307.27,81.37,310.32,84.71,310.24,88.61Zm-3-.86c0-1.87-1-2.94-2.7-2.9a3.88,3.88,0,0,0-4.13,3.43,2.37,2.37,0,0,0,2.63,2.81A4.2,4.2,0,0,0,307.27,87.74Z"/><path class="cls-6" d="M301.2,75.64c0,2-6.3,8.46-7.79,8.29a3.14,3.14,0,0,1-1.53-1.07c-.64-.65-.13-1.28.33-1.7,1.22-1.13,2.58-2.1,3.76-3.27,1-1,2.7-1.92,1.28-3.67s-2.95-.71-4.31.33c-.79.61-1.49,1.34-2.31,1.89-1.08.74-2.06,2.79-3.61.74s.88-2.41,1.71-3.35a14.65,14.65,0,0,1,3-2.59c1.3-.85,3-3.49,3.86-2.16C297.27,71.64,300.94,72.57,301.2,75.64Z"/><path class="cls-6" d="M146.41,329.84c-.44,1.89-1,4.32-1.57,6.74-.21.87-.73,1.5-1.77,1.28s-1.75-.85-1.45-2.1c.39-1.62.73-3.25,1.16-4.85s.55-3.18-1.43-3.58c-1.82-.36-2.63,1.07-3,2.62s-.73,2.9-1.06,4.36c-.24,1.08-.68,1.9-2,1.68s-1.59-1-1.3-2.15c.68-2.74,1.32-5.5,1.95-8.25.33-1.44,1.2-2.17,2.47-1.3C141,326.08,146.52,323.2,146.41,329.84Z"/><path class="cls-6" d="M221.49,25.93c-5.77,2.43-4.57,6.26-2.17,10.32-3.86,1.44-4-2.1-5.39-3.63-2,.71-3.2,3.68-6.06,1.1,3.22-2.81,6.71-5.78,2.32-10.22,3.5-1.84,3.63,1.78,5.23,2.34S218.81,22.9,221.49,25.93Z"/><path class="cls-5" d="M106.42,324.85c1.08-2.3,2-4.51,3.14-6.61.61-1.13,1.12-2.18-.16-3a2.34,2.34,0,0,0-3.47.75c-.91,1.38-1.65,2.87-2.42,4.34-.55,1-1,2.28-2.52,1.59s-1-1.83-.45-2.89c.44-.89.93-1.76,1.38-2.65,3.21-6.34,4.83-6.64,10.35-1.9a3.88,3.88,0,0,1,1.24,1.49C114.26,318.27,109.45,324.49,106.42,324.85Z"/><path class="cls-6" d="M196.37,26.61c.22-1.74.61-4.86,1-8,.16-1.34.21-2.85,2.18-2.5,1.69.3,1.24,1.62,1.1,2.76-.46,3.62-.87,7.24-1.36,10.86-.18,1.34.3,3.42-2.14,3-2-.35-1.14-2-1.07-3.25C196.1,29,196.17,28.5,196.37,26.61Z"/><path class="cls-6" d="M259.56,320.85c-.34-.25-.85-.44-1.07-.81q-3.56-5.93-7-11.91c-.62-1.06-.21-1.85.83-2.41s1.55,0,2,.73q3.4,5.74,6.78,11.49C262,319.58,261.12,320.32,259.56,320.85Z"/><path class="cls-6" d="M110.52,36.37c-.38,2.51-2,3.91-4.4,3.63-2.72-.31-3.92-2.41-3.78-5,.13-2.36,1.88-3.55,4.07-3.44C109.21,31.73,110.23,33.8,110.52,36.37Z"/><path class="cls-6" d="M256.31,52.27c-1.72-.4-2.49-1.12-1.51-2.81,2.18-3.71,4.32-7.45,6.47-11.18.55-1,1.22-1.62,2.36-.88.74.47,1.26,1.1.72,2-2.32,4-4.63,8-7,12C257.14,51.83,256.63,52,256.31,52.27Z"/><path class="cls-6" d="M170.38,331.95c-4.6-.62-5,2.36-5.15,5.78-.06,1.26.67,3.41-1.75,3.34S162,339,162,337.69c0-1.82.17-3.64.35-5.45.14-1.35-.12-3.93,1.87-3s6.33-2.66,6,2.83Z"/><path class="cls-6" d="M207.21,24.2c-.52,2.67-1,5.11-1.49,7.55-.2,1-.45,2-1.82,1.85-1.58-.22-1.66-1.32-1.4-2.59.5-2.44,1-4.88,1.45-7.32.23-1.15.34-2.42,2.09-2S207.26,23.31,207.21,24.2Z"/><path class="cls-6" d="M290,63.53a4.69,4.69,0,0,1,1.11.94,1.34,1.34,0,0,1-.18,1.79l-6.48,6.83a1.11,1.11,0,0,1-1.72.11,3.86,3.86,0,0,1-1-1.59C281.49,71,288.83,63.66,290,63.53Z"/><path class="cls-6" d="M189.32,38a40.93,40.93,0,0,1-20,0A68.12,68.12,0,0,1,189.32,38Z"/><path class="cls-6" d="M255.66,321.5c.41,1.42-.37,1.8-1.08,2.17-1,.51-1.56-.17-1.95-.92-1.37-2.64-2.68-5.31-4-8a1.38,1.38,0,0,1,.62-2.05c.77-.45,1.56-.74,2.08.25C252.84,315.91,254.32,318.87,255.66,321.5Z"/><path class="cls-6" d="M170.25,321.16a29.83,29.83,0,0,1,18.12,0A58.8,58.8,0,0,1,170.25,321.16Z"/><path class="cls-6" d="M146.91,29.53c-.78,2.18-3,1.43-4.51,2a1.47,1.47,0,0,1-1.94-1.92c.71-2.1,3-1.47,4.62-1.92C146.39,27.33,146.63,28.48,146.91,29.53Z"/><path class="cls-6" d="M156.72,16.81c1,1-1.12,2.87.92,3.66.57.22.77,1.55.14,2.21a2.35,2.35,0,0,1-1.8.57c-1.26-.19-1.29-1.35-1.37-2.33C154.46,19.21,154.56,17.6,156.72,16.81Z"/><path class="cls-6" d="M162.2,16c.47,1.39-.93,2.7.7,3.77a1.66,1.66,0,0,1-.18,2.6,2,2,0,0,1-1.38.33c-1.33-.23-1.17-1.41-1.26-2.34C159.91,18.66,159.85,17,162.2,16Z"/><path class="cls-4" d="M51.6,254.71c.17.26.56.65.49.76-.36.6-.81.31-1.21,0Z"/><path class="cls-7" d="M126.15,261.64c1.66,14.58,1.2,29.15.19,44.26a117.75,117.75,0,0,1-32.93-19.46c-36.7-30.58-53.86-69.91-51-117.54,3.65-60,50.76-112.93,109.95-123.8,43.71-8,82.84,2.2,117,30.75,2.15,1.8,4.45,3.52,5.93,6-13.42,10.48-24.81,23.1-36.88,35-2.1-5-5.53-6.07-10.43-3.82a34,34,0,0,1-7.19,2c-13.92,2.93-28.09,3.61-42.23,3.53-7.41,0-15,.51-22.32-1.54-9.36-9.93-18.65-19.92-28.11-29.75-4.31-4.48-7.59-4.88-12.93-1.66a60.19,60.19,0,0,0-17.42,15.52c-4,5.35-3.92,9.37.62,14.36,16.58,18.22,33.3,36.31,50,54.45a16.72,16.72,0,0,1-.13,2.49c-2.73,13.71-8.79,26.11-15.38,38.27-1.57,2.89-4.11,3.73-7.2,2.09a63,63,0,0,0-6.68-3.38c-10.5-4-20.9-4.07-30.65,2C78.11,217.85,78,228.81,88,235.85c14.32,10.12,37.43,5.64,46.08-9.59,8.81-15.51,15.14-32.16,20.23-49.26l14.59,15.32-25.18,28.37a5,5,0,0,0-3.45,3.17c-2,2.4-4.19,4.68-6,7.22-4.16,5.79-9.8,10.38-13.4,16.62l-1.58.93c-2.89.52-5.1,2.22-7.14,4.19a5.53,5.53,0,0,0-2.87,3c-6.35,4.91-7.14,12.8-10.35,19.39-.69,1.41.56,1.74,1.6,1.52,5.76-1.19,11.94-1.42,16-6.73C120.87,268.56,121.64,262.94,126.15,261.64Z"/><path class="cls-8" d="M277.29,83.74a114.87,114.87,0,0,1,30,45.45c19.23,53.08,10.17,101.09-27.08,143.65-1.09,1.24-2.4,2.29-3.61,3.43l-1-1c1.45-1.58.49-3-.11-4.61-3.79-9.78-8-19.43-11.19-29.39-5.35-16.62-15.32-29.72-28.75-40.48,5.09-17.83,8.72-35.87,7.94-54.55-.25-6-.79-11.93-1.19-17.9C254.65,114,266.83,99.55,277.29,83.74Z"/><path class="cls-8" d="M276.56,276.27c-14,14.74-30.86,25-49.78,32.06-1.46.54-3.06,1.61-4.4-.3,5.81-1.68,8.86-5.89,9.6-11.54a13.83,13.83,0,0,0-6.3-13.8c-2.77-1.89-4.36-2.77-.49-5.66a10.83,10.83,0,0,0,.83-16.63c-5.72-5.12-17.79-4.69-23,.87A10.89,10.89,0,0,0,200.1,268c-.54,5.85,2.88,9.49,7.16,12.9-1.18.78-2,1.3-2.8,1.85-5.63,3.84-8.22,9.09-7,15.88,1,5.56,6,9.9,12.85,11a93.92,93.92,0,0,0,10,.55c-8.13,3.66-16.88,4.68-25.56,5.74-18.59,2.29-36.84.21-54.81-4.89-2.81-.8-3.93-1.68-4.22-5.14-.81-9.77.89-19.64-1.29-29.33-.16-.72-.32-1.76.66-2.15s1.51.48,1.87,1.19c5.44,10.75,13.27,20,19.41,30.25,1.59,2.67,7.32,4.36,9.88,3,1.36-.73,1-2,1-3.05,0-14.49-.08-29,.07-43.47,0-4-2.57-3-4.72-3.1-2.33-.09-4.66-.48-4.55,3.33.29,10.15.26,20.3.36,30.45l-.15.13c-6.16-9.8-12.62-19.44-18.32-29.5-2.1-3.71-4.36-4.85-8.2-4.48-1.54.15-3.36.63-4.65-.94l.05-2.27.48-1.53c5.71-3.93,10.18-9.16,14.83-14.2l.84-1.07.1-.11.89-.9.11-.11.88-.89.12-.07a34.24,34.24,0,0,0,7.15-7.51l25.41-27.38L187.56,213c-4.19,1.92-8.9,2.48-12.81,5.21-9.4,6.54-9.59,17.28-.24,23.95,6.09,4.34,13,5.4,20.34,5.29,7-.1,13-3.4,19.42-5.6A51.67,51.67,0,0,0,232.51,256c12.58,5.9,25.29,11.59,37.35,18.54a6.39,6.39,0,0,0,5.71.66Zm-93-25.44c-6.81,0-11.28,4.18-11.21,10.62a9.22,9.22,0,0,0,9.48,9.44,10.9,10.9,0,0,0,11.33-10.83C193.17,254.71,189.17,250.86,183.58,250.82Z"/><path class="cls-9" d="M220.26,310.12a93.92,93.92,0,0,1-10-.55c-6.82-1.07-11.85-5.41-12.85-11-1.22-6.79,1.37-12,7-15.88.8-.55,1.63-1.07,2.8-1.85-4.28-3.41-7.7-7.05-7.16-12.9a10.89,10.89,0,0,1,2.93-6.71c5.21-5.56,17.28-6,23-.87a10.83,10.83,0,0,1-.83,16.63c-3.87,2.89-2.28,3.78.49,5.66a13.83,13.83,0,0,1,6.3,13.8c-.73,5.65-3.79,9.87-9.6,11.54A1.91,1.91,0,0,0,220.26,310.12Zm2.14-15c-.1-4.73-5.38-11-9.33-11.05-3.22-.05-6.89,5.57-6.81,10.44.08,5.15,3.47,8.59,8.4,8.5C219.33,302.92,222.49,299.69,222.4,295.11Zm-14.08-27.17c.06,4.15,4.81,9.66,7.83,9.1,3.89-.73,5-3.94,5.14-7.51.11-4.33-2.47-6.78-6.82-6.68C210.74,262.94,208.52,264.64,208.31,267.94Z"/><path class="cls-10" d="M277.29,83.74c-10.46,15.82-22.64,30.27-35,44.59l-3.78-11.47c12.07-11.9,23.46-24.52,36.88-35Z"/><path class="cls-2" d="M127.12,255.87q0,1.14-.05,2.27l-.9,1.81L120.5,262l-.19-2.1c1.25-1.12.19-1.28-.57-2-2.25-2.17-6.09-1.92-7.61-5.1,2-2,4.24-3.67,7.14-4.19.2,3.46,2.51,3.63,5.14,3.3l0-.09C124.17,254,123.65,256.27,127.12,255.87Z"/><path class="cls-11" d="M120.5,262l5.67-2.09c0,.56,0,1.13,0,1.69-4.51,1.3-5.29,6.92-9.67,8.37C116.78,266.83,118.72,264.48,120.5,262Z"/><path class="cls-8" d="M158.39,292.93c.21.39.44.78.62,1.18,0,0-.22.21-.35.31l-.42-1.37Z"/><path class="cls-3" d="M128.48,36.13c-.11,1.58-.77,2.54-2.1,2.47-1.78-.09-2.53-1.37-2.47-3a1.92,1.92,0,0,1,2.32-1.92A2.45,2.45,0,0,1,128.48,36.13Z"/><path class="cls-3" d="M127.58,321.41c0,1.62,1.56,3.48-.41,4.55a2.41,2.41,0,0,1-2.24-.56C124.13,323.2,126.21,322.53,127.58,321.41Z"/><path class="cls-3" d="M210.45,333.73c0,1.61-.4,3.24-2.29,3.17-2.64-.09-2.86-2.3-3-4.33-.11-1.76.77-3.12,2.52-2.94C209.9,329.87,210.34,331.81,210.45,333.73Z"/><path class="cls-3" d="M281.46,60.44c-.72,2-1.81,3.79-4.38,3.69a1.91,1.91,0,0,1-1.9-2.35c.37-2.3,1.67-4,4.11-4.12C280.85,57.58,281.52,58.77,281.46,60.44Z"/><path class="cls-3" d="M156.65,332.82c-.14,2.26-.49,4.23-2.67,4.59-1.75.29-2.71-1.05-2.68-2.78,0-2,.34-4.21,2.89-4.5C156.17,329.92,156.44,331.64,156.65,332.82Z"/><path class="cls-3" d="M240.67,30.53c-.16,1.47-.82,2.6-2.46,2.37-1.37-.19-3.32-.24-3.48-2-.12-1.23.3-3.28,2.24-3.14A3.8,3.8,0,0,1,240.67,30.53Z"/><path class="cls-3" d="M307.27,87.74a4.2,4.2,0,0,1-4.2,3.34,2.37,2.37,0,0,1-2.63-2.81,3.88,3.88,0,0,1,4.13-3.43C306.28,84.8,307.23,85.87,307.27,87.74Z"/><path class="cls-9" d="M238.49,116.85l3.78,11.47c.4,6,.94,11.93,1.19,17.9.78,18.67-2.85,36.72-7.94,54.55-1.24.78-1.23,2-1.23,3.27a37.28,37.28,0,0,0-3.82,9.87c-1.3.72-1.17,2-1.24,3.2-2.52,3.29-3.79,7.2-5.46,10.92a4,4,0,0,0-1.47,3.61c-2.54,1.94-3.82,4.81-5.53,7.37a2.76,2.76,0,0,0-2.5,2.81c-6.37,2.21-12.38,5.5-19.42,5.6-7.32.11-14.26-.95-20.34-5.29-9.35-6.67-9.16-17.41.24-23.95,3.92-2.73,8.62-3.29,12.81-5.21l5-.07c5.08.28,9.86,1.95,14.75,3.12l-.05-.1,1.08,1.16c2.1,1.55,4.23,3,7,2.87,5.83-.75,5.5-6.34,7.78-9.89,1.23-.68,1.11-1.87,1.14-3,2.2-3,3.06-6.42,3.8-9.93,1.27-.76,1.18-2,1.17-3.24a121.25,121.25,0,0,0,4.58-18.32c2.36-12.76,3.64-25.6,1.49-38.55-.33-1.42-1-2.88-.92-4.26.4-5.1-2.36-5-5.9-3.86-1.09.36-2.16.79-3.24,1.19a27.52,27.52,0,0,0-5,.06c-15.79,3-31.75,3.31-47.75,2.93H167a40,40,0,0,1-5-.24c-3.8-.64-4.72,1-3.78,4.37l.1,5c0,5.07.23,10.15-1,15.15q-.1,2-.19,4c-.57,4.13-2.18,8.12-1.61,12.39-1.36.73-1.31,2-1.32,3.29-5.09,17.1-11.42,33.75-20.23,49.26C125.44,241.49,102.32,246,88,235.85c-10-7-9.9-18,.41-24.43,9.75-6.08,20.15-6,30.65-2a63,63,0,0,1,6.68,3.38c3.09,1.63,5.64.8,7.2-2.09,6.59-12.16,12.65-24.55,15.38-38.27a16.69,16.69,0,0,0,.13-2.49c1.28-1,.73-2.4.82-3.67,1.48-3.94,1.67-8.09,2-12.23.1-1.79,0-3.6.86-5.27-.69-5.41.17-11-2-16.23.8-2.84-1.59-4.89-1.84-7.47L147.24,124l.08.1a12.59,12.59,0,0,0-.5-2.32c-2.29-5.48-2.3-5.47,3.53-5.73l-.1-.07.7.86,5.36.21c7.33,2.05,14.91,1.49,22.32,1.54,14.13.09,28.3-.6,42.23-3.53a34,34,0,0,0,7.19-2C233,110.78,236.39,111.81,238.49,116.85Z"/><path class="cls-10" d="M225.28,130.1c1.08-.4,2.15-.83,3.24-1.19,3.54-1.15,6.3-1.25,5.9,3.86-.11,1.39.59,2.84.92,4.26l-28.65,32.75a3.71,3.71,0,0,0-1.94,2.82c-3.1,1.55-4.87,4.37-6.75,7.09l-1.24,1.82c-3.66,2.33-6.13,5.76-8.6,9.2l-1.4,1.92c-2.91,1.72-4.86,4.33-6.65,7.09l-2.18,2.37-25.41,27.38a11.45,11.45,0,0,1-8.81-8.8l25.18-28.37,2-2.29c3.58-1.3,4.6-4.85,6.62-7.51l2.18-1.67a30.2,30.2,0,0,0,7.72-9.33l1.43-1.45a13.84,13.84,0,0,0,6.51-7.55,3.27,3.27,0,0,0,2.4-2.27q13.72-14.34,27.41-28.72C225.4,131.26,225.24,130.59,225.28,130.1Z"/><path class="cls-12" d="M149.28,166.28c-.09,1.26.46,2.67-.82,3.67-16.67-18.14-33.38-36.24-50-54.45-4.54-5-4.61-9-.62-14.36a60.19,60.19,0,0,1,17.42-15.52c5.34-3.23,8.62-2.82,12.93,1.66C137.67,97.1,147,107.09,156.32,117L151,116.8l-.7-.86.1.07c-1.22-2.46-3.29-4.15-5.37-5.77-3.07-2.38-6-.54-8.11,1.33-2.51,2.28.89,3.71,2,5a101.51,101.51,0,0,0,8.41,7.53l-.08-.1,1.05,1.12c.25,2.58,2.65,4.63,1.84,7.47L137.35,120c-2.11-1.67-3.44-5.52-6.74-4.11-5.36,2.28-5.58,5-1.45,9,.7.68,1.46,1.31,2.19,2,5.61,7.76,12.47,14.45,18.67,21.7a1.36,1.36,0,0,0,2.1.24c-.85,1.66-.77,3.48-.86,5.27-8.18-8.75-16.33-17.53-24.59-26.21-1.17-1.23-2.26-3.83-4-3.06-2.28,1-3.24,3.78-3.59,6.27-.3,2.13,1.41,3.71,2.69,5.14,5.83,6.55,12.36,12.45,17.77,19.42C142.47,159.4,146,162.74,149.28,166.28Zm-28.55-79a10.28,10.28,0,0,0-6,2.24,113.59,113.59,0,0,0-9.11,7.75c-9.52,9.33-9.34,13.1.72,21.69a4,4,0,0,1,.37.34c1.27,1.39,2.29,1.59,3.39-.31,5-8.62,12.37-14.69,21-19.38.79-.43,2-.6,1.88-2C132.77,95.36,123.25,87.33,120.73,87.25Zm14.21,14.67c-7,.12-23,14.74-23.11,21.5a5.92,5.92,0,0,0,3.15,4.83c1.44.81,2-1.36,2.62-2.34a52.1,52.1,0,0,1,19.6-18c1.12-.59,3.46-.94,2.54-2.86C138.93,103.32,137.48,101.61,134.93,101.92Z"/><path class="cls-13" d="M120.5,262c-1.78,2.44-3.72,4.79-4,8-4,5.31-10.21,5.54-16,6.73-1,.21-2.28-.11-1.6-1.52,3.21-6.59,4-14.48,10.35-19.39l11,4.1Z"/><path class="cls-3" d="M120.85,247.7c3.6-6.24,9.23-10.83,13.4-16.62,1.83-2.54,4-4.82,6-7.22-.32,2.74,1.72,4.75,2.23,7.23q-8.11,8.31-16.23,16.62c-1.21,1.24-.81,2.79-.91,4.24a2.68,2.68,0,0,1-1-.11v.09Z"/><path class="cls-11" d="M142.51,231.09c-.51-2.48-2.56-4.49-2.23-7.23a5,5,0,0,1,3.45-3.17,11.45,11.45,0,0,0,8.81,8.8,34.19,34.19,0,0,1-7.15,7.51C145.81,234.36,146.53,231.57,142.51,231.09Z"/><path class="cls-12" d="M170.88,190l-2,2.29L154.32,177c0-1.27,0-2.56,1.32-3.29Z"/><path class="cls-11" d="M120.31,259.94l-11-4.1a5.53,5.53,0,0,1,2.87-3c1.52,3.18,5.35,2.93,7.61,5.1C120.5,258.66,121.57,258.82,120.31,259.94Z"/><path class="cls-6" d="M120.85,247.7l3.55,4.23c-2.63.33-4.94.15-5.13-3.3Z"/><path class="cls-12" d="M214.27,241.83a2.76,2.76,0,0,1,2.5-2.81,16.57,16.57,0,0,1,1.84,2.36c2,3.78,3.91,2.84,6.84.68,3.47-2.55,3.09-4.34.26-6.77a43.83,43.83,0,0,1-3.41-3.65,4,4,0,0,1,1.47-3.61l1.2,1.1c4.13,5,8.15,10.14,14.35,12.75,2.47,1,5.63,2.12,7.52,0s-.2-5-1.46-7.25c-2.72-5-7.68-7.71-11.47-11.61l-4.69-5.88c.07-1.2-.06-2.48,1.24-3.2l13.86,15c1.32-2.63,1.72-4.47,2.85-5.5,3.1-2.8,1.53-4.6-.72-6.8-4.16-4.07-8.13-8.34-12.18-12.53,0-1.24,0-2.5,1.23-3.27,13.43,10.76,23.4,23.86,28.75,40.48,3.21,10,7.4,19.62,11.19,29.39.6,1.56,1.57,3,.11,4.61a6.39,6.39,0,0,1-5.71-.66c-12.06-7-24.77-12.64-37.35-18.54A51.67,51.67,0,0,1,214.27,241.83Zm18,1.32c-3-1.32-5.43-.08-6.53,2.59-1.23,3,1.65,3.87,3.65,4.78,2.2,1,4.17,2.81,6.89,2.36,4.3,3.81,9.63,5.78,14.7,8.24,3.12,1.51,6,3.11,6.82-2.37a4.26,4.26,0,0,1,2.33-3c5.82-1.39,3.74-4.72,2.24-8-1-2.25-2-4.52-3-6.78a57.63,57.63,0,0,0-5.45-14.33c-.57-1-1-2.82-2.7-2.36-1.34.36-1.93,1.75-2.23,3.07-.7,3.07.33,5.87,1.45,8.64l.69,3.28c-.07.1-.2.21-.18.29a3.81,3.81,0,0,0,.26.62c-1.34,5.43-4.15,7.14-9.68,5.71C238.42,245.06,235.36,244.06,232.28,243.15Zm39.37,27.32c-2.07-5-5.12-7.83-7.8-10.91a2.19,2.19,0,0,0-2.76-.45c-1.27.74-.46,1.75,0,2.52C263.47,265.27,266.12,268.58,271.65,270.46Z"/><path class="cls-5" d="M183.58,250.82c5.59,0,9.59,3.88,9.59,9.24a10.9,10.9,0,0,1-11.33,10.83,9.22,9.22,0,0,1-9.48-9.44C172.3,255,176.77,250.78,183.58,250.82Zm-1.15,15.34c3.4-.22,5.83-1.94,5.88-5.74,0-3.34-2.05-5.31-5.34-5.19s-5.68,1.85-5.8,5.51C177,264.14,178.73,266,182.43,266.17Z"/><path class="cls-13" d="M142.51,231.09c4,.48,3.3,3.26,2.87,5.91l-.12.07-.88.89-.11.11-.89.9-.1.11-.84,1.07c-4.65,5-9.13,10.26-14.84,14.2-1.33-.25-1.49-1.59-2.23-2.39.1-1.46-.3-3,.91-4.24Q134.4,239.41,142.51,231.09Z"/><path class="cls-12" d="M177.94,202.11l2.18-2.36,12.46,13.17-5,.07Z"/><path class="cls-6" d="M125.37,252c.74.8.9,2.14,2.23,2.39l-.48,1.53c-3.47.4-3-1.91-2.73-4A2.7,2.7,0,0,0,125.37,252Z"/><path class="cls-11" d="M143.38,239l.89-.9Z"/><path class="cls-11" d="M142.44,240.15l.84-1.07Z"/><path class="cls-11" d="M144.37,238l.88-.89Z"/><path class="cls-8" d="M222.4,295.11c.09,4.58-3.07,7.8-7.74,7.89-4.93.09-8.32-3.34-8.4-8.5-.07-4.87,3.59-10.49,6.81-10.44C217,284.13,222.3,290.39,222.4,295.11Z"/><path class="cls-8" d="M208.31,267.94c.2-3.31,2.43-5,6.14-5.09,4.35-.1,6.93,2.35,6.82,6.68-.09,3.56-1.25,6.78-5.14,7.51C213.13,277.6,208.38,272.09,208.31,267.94Z"/><path class="cls-8" d="M206.69,169.79,235.34,137c2.14,13,.86,25.78-1.49,38.55a121.27,121.27,0,0,1-4.58,18.32Z"/><path class="cls-8" d="M225.28,130.1c0,.49.12,1.16-.14,1.43q-13.67,14.39-27.41,28.72l-4-4.38c-7-7.67-14.67-14.66-21.16-22.77,16,.37,32,.1,47.75-2.93A27.52,27.52,0,0,1,225.28,130.1Z"/><path class="cls-14" d="M188.17,190.73c2.47-3.44,4.94-6.88,8.6-9.2l26.39,28.55c-2.28,3.54-2,9.14-7.78,9.89Z"/><path class="cls-14" d="M187.39,171.52a30.27,30.27,0,0,1-7.71,9.33c-1.28-1.29-2.61-2.55-3.86-3.87q-9.21-9.81-18.39-19.64c1.18-5,.94-10.08.95-15.15,1.71.51,2.58,2,3.72,3.2Q174.78,158.41,187.39,171.52Z"/><path class="cls-15" d="M149.28,166.28c-3.27-3.54-6.8-6.87-9.75-10.66-5.41-7-11.94-12.87-17.77-19.42-1.28-1.43-3-3-2.69-5.14.35-2.49,1.31-5.26,3.59-6.27,1.75-.77,2.84,1.82,4,3.06,8.25,8.68,16.4,17.46,24.59,26.21C150.95,158.18,150.76,162.33,149.28,166.28Z"/><path class="cls-15" d="M195.33,162.52a13.84,13.84,0,0,1-6.51,7.55l-30.53-32.85c-.94-3.36,0-5,3.78-4.37a40,40,0,0,0,5,.24C176.25,143.11,185.44,153.15,195.33,162.52Z"/><path class="cls-15" d="M198,179.7c1.88-2.71,3.65-5.54,6.75-7.09l23.35,24.53c-.74,3.51-1.61,7-3.8,9.93Z"/><path class="cls-14" d="M152.13,148.78a1.36,1.36,0,0,1-2.1-.24c-6.2-7.25-13.06-13.94-18.67-21.7.22-3.84,2.6-5.8,6-6.86l12.79,12.57C152.3,137.78,151.44,143.38,152.13,148.78Z"/><path class="cls-15" d="M170.88,190l-15.24-16.31c-.58-4.28,1-8.27,1.61-12.39l20.25,21.19C175.48,185.18,174.46,188.73,170.88,190Z"/><path class="cls-15" d="M192.58,212.91l-12.46-13.17c1.79-2.77,3.75-5.37,6.66-7.09,1.18,1.39,2.34,2.78,3.53,4.16,5.58,6.49,12,12.23,17,19.22C202.44,214.86,197.65,213.19,192.58,212.91Z"/><path class="cls-15" d="M234.29,204c4,4.19,8,8.46,12.18,12.53,2.24,2.19,3.81,4,.72,6.8-1.13,1-1.53,2.86-2.85,5.5l-13.86-15A37.28,37.28,0,0,1,234.29,204Z"/><path class="cls-12" d="M195.33,162.52c-9.89-9.37-19.08-19.4-28.28-29.43h5.51c6.49,8.11,14.19,15.1,21.16,22.77l4,4.38A3.26,3.26,0,0,1,195.33,162.52Z"/><path class="cls-12" d="M158.29,137.22l30.53,32.85-1.43,1.45q-12.64-13.08-25.29-26.14c-1.14-1.17-2-2.69-3.72-3.2Q158.34,139.7,158.29,137.22Z"/><path class="cls-12" d="M228.11,197.14l-23.35-24.53a3.71,3.71,0,0,1,1.93-2.82l22.58,24.11C229.28,195.12,229.38,196.37,228.11,197.14Z"/><path class="cls-12" d="M207.32,216c-5-7-11.45-12.73-17-19.22-1.18-1.38-2.35-2.77-3.53-4.16l1.4-1.92L215.38,220c-2.81.18-4.93-1.32-7-2.87l-1.08-1.16Z"/><path class="cls-12" d="M198,179.7l26.3,27.37c0,1.13.1,2.33-1.14,3l-26.39-28.55Z"/><path class="cls-15" d="M147.32,124.06a101.51,101.51,0,0,1-8.41-7.53c-1.14-1.25-4.55-2.69-2-5,2.07-1.87,5-3.71,8.11-1.33,2.08,1.62,4.15,3.31,5.37,5.77-5.84.26-5.82.25-3.53,5.73A12.59,12.59,0,0,1,147.32,124.06Z"/><path class="cls-12" d="M177.5,182.52l-20.25-21.19q.09-2,.19-4,9.19,9.82,18.39,19.64c1.25,1.33,2.57,2.58,3.86,3.87Z"/><path class="cls-15" d="M222.3,231.64a43.83,43.83,0,0,0,3.41,3.65c2.83,2.43,3.21,4.23-.26,6.77-2.93,2.15-4.85,3.09-6.84-.68a16.57,16.57,0,0,0-1.84-2.36C218.48,236.46,219.76,233.58,222.3,231.64Z"/><path class="cls-14" d="M225,229.13l-1.2-1.1c1.67-3.72,2.93-7.63,5.46-10.92l4.69,5.88c-1.33,0-3,.13-3.18,1.56C230.31,228.18,227.61,228.51,225,229.13Z"/><path class="cls-15" d="M148.3,125.08,147.24,124Z"/><path class="cls-15" d="M150.26,115.95l.7.86Z"/><path class="cls-15" d="M207.27,215.94l1.08,1.16Z"/><path class="cls-11" d="M120.73,87.25c2.52.08,12,8.11,12.27,10.36.14,1.36-1.09,1.53-1.88,2-8.64,4.69-16,10.76-21,19.38-1.1,1.89-2.12,1.7-3.39.31a4,4,0,0,0-.37-.34c-10.06-8.59-10.24-12.36-.72-21.69a113.59,113.59,0,0,1,9.11-7.75A10.25,10.25,0,0,1,120.73,87.25Z"/><path class="cls-2" d="M134.93,101.92c2.55-.31,4,1.41,4.8,3.08.92,1.92-1.42,2.27-2.54,2.86a52.1,52.1,0,0,0-19.6,18c-.64,1-1.18,3.15-2.62,2.34a5.92,5.92,0,0,1-3.15-4.83C111.93,116.66,127.9,102,134.93,101.92Z"/><path class="cls-15" d="M137.35,120c-3.4,1.07-5.78,3-6,6.86-.73-.65-1.48-1.28-2.19-2-4.14-4-3.92-6.73,1.45-9C133.91,114.47,135.24,118.32,137.35,120Z"/><path class="cls-13" d="M251.13,239.24l-.69-3.28c2.41-1.68,2.88.4,3.88,1.85,1.18,1.71,1.89,4.49,5,3.12,1,2.26,2,4.53,3,6.78,1.5,3.29,3.57,6.61-2.24,8a4.26,4.26,0,0,0-2.33,3c-.79,5.48-3.7,3.88-6.82,2.37-5.06-2.46-10.39-4.43-14.7-8.24.31-3.92-4.74-5.63-4-9.72,3.08.91,6.14,1.91,9.24,2.71,5.53,1.43,8.34-.27,9.68-5.7A1.09,1.09,0,0,0,251.13,239.24Z"/><path class="cls-15" d="M225,229.13c2.63-.61,5.33-1,5.76-4.58.17-1.43,1.85-1.56,3.18-1.56,3.79,3.9,8.75,6.65,11.47,11.6,1.26,2.29,3.47,5,1.46,7.25s-5,1.08-7.52,0C233.13,239.26,229.11,234.12,225,229.13Z"/><path class="cls-11" d="M259.36,240.94c-3.16,1.37-3.87-1.41-5-3.12-1-1.46-1.47-3.53-3.88-1.85-1.12-2.78-2.15-5.58-1.45-8.64.3-1.32.89-2.71,2.23-3.07,1.72-.46,2.12,1.33,2.7,2.36A57.63,57.63,0,0,1,259.36,240.94Z"/><path class="cls-11" d="M232.28,243.15c-.73,4.09,4.32,5.8,4,9.72-2.71.45-4.68-1.36-6.89-2.36-2-.91-4.88-1.78-3.65-4.78C226.85,243.06,229.24,241.83,232.28,243.15Z"/><path class="cls-2" d="M271.65,270.46c-5.53-1.89-8.18-5.2-10.52-8.84-.5-.78-1.31-1.79,0-2.52a2.19,2.19,0,0,1,2.76.45C266.53,262.64,269.58,265.47,271.65,270.46Z"/><path class="cls-11" d="M251.13,239.24a1.09,1.09,0,0,1,.07.91,3.82,3.82,0,0,1-.26-.62C250.93,239.45,251.06,239.34,251.13,239.24Z"/><path class="cls-8" d="M182.43,266.17c-3.7-.15-5.38-2-5.27-5.41.12-3.67,2.51-5.39,5.8-5.51s5.38,1.85,5.34,5.19C188.26,264.22,185.83,265.95,182.43,266.17Z"/></svg>